<svg xmlns="http://www.w3.org/2000/svg" viewBox="0 0 357.8 121.68"><defs><style>.cls-1{font-size:80px;fill:#219ed5;font-family:Montserrat-Bold, Montserrat;font-weight:700;}.cls-2{letter-spacing:0.01em;}.cls-3{letter-spacing:0em;}.cls-4{letter-spacing:0.01em;}.cls-5{fill:#29abe2;}</style></defs><title>Asset 3</title><g id="Layer_2" data-name="Layer 2"><g id="Layer_1-2" data-name="Layer 1"><text class="cls-1" transform="translate(132.52 84.2)">e<tspan class="cls-2" x="50.48" y="0">r</tspan><tspan class="cls-3" x="86.16" y="0">ti</tspan><tspan class="cls-4" x="145.04" y="0">f</tspan><tspan x="176.8" y="0">y</tspan></text><path class="cls-5" d="M53.4,121.37a57.21,57.21,0,0,1-28.84-11.05A59.42,59.42,0,0,1,5.12,85.17,59.48,59.48,0,0,1,.48,53.72,57.16,57.16,0,0,1,12.6,25.25,65.21,65.21,0,0,1,38.85,5.61,66.48,66.48,0,0,1,63.79,0,51.42,51.42,0,0,1,87,5L81.14,19q-17.62-7.62-35.83.12A48,48,0,0,0,25.86,33.72,42.53,42.53,0,0,0,17,55.07a45.32,45.32,0,0,0,3.54,23.54A45.34,45.34,0,0,0,35,97.49a42.54,42.54,0,0,0,21.52,8.42,47.9,47.9,0,0,0,24-3.85,43.8,43.8,0,0,0,24.87-25.89l14.16,5.46a52.13,52.13,0,0,1-12.59,20.29,66,66,0,0,1-21.37,14.19A64.76,64.76,0,0,1,53.4,121.37Z"/><polygon class="cls-5" points="116.24 4.19 64.31 61.59 39.78 41.4 26.18 41.47 57.06 85.26 65.69 97.49 74.58 84.57 129.88 4.19 116.24 4.19"/></g></g></svg>